<svg id="Group_69502" data-name="Group 69502" xmlns="http://www.w3.org/2000/svg" xmlns:xlink="http://www.w3.org/1999/xlink" width="166.876" height="27.665" viewBox="0 0 166.876 27.665">
  <defs>
    <clipPath id="clip-path">
      <rect id="Rectangle_16527" data-name="Rectangle 16527" width="166.876" height="27.665" fill="none"/>
    </clipPath>
  </defs>
  <g id="Group_69501" data-name="Group 69501" transform="translate(0 0)" clip-path="url(#clip-path)">
    <path id="Path_45091" data-name="Path 45091" d="M11,20.443v2.67a11.348,11.348,0,0,1-3.969.724,6.92,6.92,0,0,1-5.107-1.9A6.857,6.857,0,0,1,.008,16.854a7.261,7.261,0,0,1,1.862-5.192A6.385,6.385,0,0,1,6.745,9.688a8.142,8.142,0,0,1,1.89.2,12.408,12.408,0,0,1,2.065.717v2.88a7.177,7.177,0,0,0-3.794-1.307,3.877,3.877,0,0,0-2.993,1.286,4.659,4.659,0,0,0-1.173,3.267,4.411,4.411,0,0,0,1.265,3.323,4.7,4.7,0,0,0,3.421,1.229A8.911,8.911,0,0,0,11,20.443" transform="translate(0 -2.88)" fill="#ff8f1c"/>
    <path id="Path_45092" data-name="Path 45092" d="M24.309,12.45a4.263,4.263,0,0,0-3.189,1.272,4.455,4.455,0,0,0-1.243,3.246,4.255,4.255,0,0,0,1.272,3.2A4.5,4.5,0,0,0,24.4,21.407a4.43,4.43,0,0,0,3.253-1.25,4.319,4.319,0,0,0,1.265-3.21,4.283,4.283,0,0,0-1.349-3.218,4.586,4.586,0,0,0-3.323-1.272M24.422,10A7.117,7.117,0,0,1,29.6,12.008a6.759,6.759,0,0,1,2.058,5.051,6.415,6.415,0,0,1-2.108,4.918,7.418,7.418,0,0,1-5.262,1.946,7.118,7.118,0,0,1-5.149-1.981,6.577,6.577,0,0,1-2.058-4.918,6.619,6.619,0,0,1,2.108-4.988,7.256,7.256,0,0,1,5.227-2" transform="translate(-5.081 -2.973)" fill="#ff8f1c"/>
    <path id="Path_45093" data-name="Path 45093" d="M47.57,10.07H50.5L44.472,23.952h-.913L37.391,10.07h2.951l3.681,8.4Z" transform="translate(-11.123 -2.996)" fill="#ff8f1c"/>
    <path id="Path_45094" data-name="Path 45094" d="M58.992,15.4h6.864a3.767,3.767,0,0,0-.962-2.494,3.1,3.1,0,0,0-2.311-.892,3.331,3.331,0,0,0-2.382.871,4.329,4.329,0,0,0-1.208,2.494M68.525,17H58.936a4.445,4.445,0,0,0,1.314,3.112,4.319,4.319,0,0,0,3.119,1.159,8.121,8.121,0,0,0,4.918-1.658v2.663A9.04,9.04,0,0,1,65.82,23.46a10.307,10.307,0,0,1-2.866.358,6.443,6.443,0,0,1-3.646-.934,6.8,6.8,0,0,1-2.234-2.515,7.677,7.677,0,0,1-.836-3.653A7.247,7.247,0,0,1,58,11.651,5.9,5.9,0,0,1,62.582,9.7a5.4,5.4,0,0,1,4.327,1.9,7.582,7.582,0,0,1,1.616,5.086V17Z" transform="translate(-16.728 -2.884)" fill="#ff8f1c"/>
    <path id="Path_45095" data-name="Path 45095" d="M79.993,9.954V13.08l.148-.239Q82.1,9.68,84.053,9.68a4.825,4.825,0,0,1,3.189,1.546L85.838,13.6a4,4,0,0,0-2.606-1.335,2.809,2.809,0,0,0-2.283,1.243,4.7,4.7,0,0,0-.955,2.951V23.6H77.281V9.954Z" transform="translate(-22.99 -2.88)" fill="#ff8f1c"/>
    <path id="Path_45096" data-name="Path 45096" d="M105.286,13.667v9.905h-2.712V15.978a5.963,5.963,0,0,0-.611-3.168,2.374,2.374,0,0,0-2.108-.9A3.177,3.177,0,0,0,98.3,12.3a6.829,6.829,0,0,0-1.609,1.363v9.905H94.011V9.93h2.7v1.777a5.869,5.869,0,0,1,4.032-2.058,4.433,4.433,0,0,1,4.018,2.459Q106.917,9.6,109.27,9.6a4.166,4.166,0,0,1,3.267,1.454,6.54,6.54,0,0,1,1.286,4.433v8.086h-2.7V15.5a4.217,4.217,0,0,0-.7-2.606,2.381,2.381,0,0,0-2.016-.906,4.139,4.139,0,0,0-3.154,1.679" transform="translate(-27.967 -2.855)" fill="#e70865"/>
    <path id="Path_45097" data-name="Path 45097" d="M133.516,10.07h3.028l-9.667,20.591h-3.014l4.637-9.877L123.231,10.07h3.07l3.688,7.707Z" transform="translate(-36.659 -2.996)" fill="#e70865"/>
    <path id="Path_45098" data-name="Path 45098" d="M156.013,13.667v9.905H153.3V15.978a5.967,5.967,0,0,0-.6-3.168,2.374,2.374,0,0,0-2.108-.9,3.177,3.177,0,0,0-1.553.386,6.811,6.811,0,0,0-1.609,1.363v9.905h-2.7V9.93h2.7v1.777a5.869,5.869,0,0,1,4.032-2.058,4.433,4.433,0,0,1,4.018,2.459q2.15-2.508,4.51-2.508a4.166,4.166,0,0,1,3.267,1.454,6.592,6.592,0,0,1,1.286,4.433v8.086h-2.7V15.5a4.217,4.217,0,0,0-.7-2.606,2.382,2.382,0,0,0-2-.906,4.145,4.145,0,0,0-3.126,1.693" transform="translate(-43.055 -2.855)" fill="#ff8f1c"/>
    <path id="Path_45099" data-name="Path 45099" d="M177.413,15.4h6.864a3.768,3.768,0,0,0-.948-2.494A3.1,3.1,0,0,0,181,12.017a3.331,3.331,0,0,0-2.382.871,4.329,4.329,0,0,0-1.208,2.494M186.946,17h-9.6a4.445,4.445,0,0,0,1.314,3.112,4.319,4.319,0,0,0,3.119,1.159,8.111,8.111,0,0,0,4.918-1.658v2.663a9,9,0,0,1-2.466,1.187,10.307,10.307,0,0,1-2.866.358,6.443,6.443,0,0,1-3.66-.934,6.807,6.807,0,0,1-2.234-2.515,7.687,7.687,0,0,1-.836-3.653,7.255,7.255,0,0,1,1.763-5.065,5.888,5.888,0,0,1,4.58-1.953,5.4,5.4,0,0,1,4.327,1.9,7.589,7.589,0,0,1,1.616,5.086v.344Z" transform="translate(-51.95 -2.884)" fill="#ff8f1c"/>
    <path id="Path_45100" data-name="Path 45100" d="M203.413,18.4V9.758a5.62,5.62,0,0,0-2.55-.639,4.116,4.116,0,0,0-3.211,1.321A5.108,5.108,0,0,0,196.458,14a4.659,4.659,0,0,0,1.04,3.246,3.209,3.209,0,0,0,1.356.92,8.889,8.889,0,0,0,2.508.239h2.108Zm0-18.4h2.712V20.717h-5.733a6.324,6.324,0,0,1-4.826-1.911,7.179,7.179,0,0,1-1.8-5.128,6.807,6.807,0,0,1,1.89-4.918,6.444,6.444,0,0,1,4.819-2.016,8.791,8.791,0,0,1,2.965.576V0Z" transform="translate(-57.64 0)" fill="#ff8f1c"/>
    <path id="Path_45101" data-name="Path 45101" d="M213.917,22.629V19.756a12.305,12.305,0,0,0,2.332,1.3,5.456,5.456,0,0,0,2.009.5,2.519,2.519,0,0,0,1.454-.414,1.2,1.2,0,0,0,.6-.991,1.341,1.341,0,0,0-.393-.984,9.174,9.174,0,0,0-1.7-1.131,11.993,11.993,0,0,1-3.414-2.494A3.556,3.556,0,0,1,214,13.293a3.154,3.154,0,0,1,1.222-2.564,4.84,4.84,0,0,1,3.154-.991,8.68,8.68,0,0,1,4.11,1.124v2.67a8.22,8.22,0,0,0-3.962-1.5,2.181,2.181,0,0,0-1.264.33,1.025,1.025,0,0,0-.485.885,1.264,1.264,0,0,0,.436.906,7.458,7.458,0,0,0,1.531,1.04l.962.548q3.393,1.91,3.393,4.285a3.4,3.4,0,0,1-1.314,2.747,5.15,5.15,0,0,1-3.372,1.075,8.2,8.2,0,0,1-2.164-.26,14.4,14.4,0,0,1-2.389-.955" transform="translate(-63.62 -2.895)" fill="#ff8f1c"/>
    <path id="Path_45102" data-name="Path 45102" d="M231.984,10.931h.506c.555,0,.773.141.773.45s-.119.471-.78.471h-.5Zm-.4-.33v2.81h.4V12.2h.3a.766.766,0,0,1,.7.478l.393.7h.478l-.351-.618a1.138,1.138,0,0,0-.6-.625.787.787,0,0,0,.808-.765h0c0-.246-.148-.745-1-.745h-1.117Zm3.372,1.363a2.245,2.245,0,1,1,0-.007v.007m.372,0a2.613,2.613,0,1,0-2.613,2.613,2.613,2.613,0,0,0,2.613-2.613" transform="translate(-68.452 -2.781)" fill="#ff8f1c"/>
  </g>
</svg>
