<svg xmlns="http://www.w3.org/2000/svg" width="120.727" height="120.999" viewBox="0 0 120.727 120.999">
  <g id="Group_46026" data-name="Group 46026" transform="translate(-19610.001 12389.999)">
    <g id="Rectangle_10869" data-name="Rectangle 10869" transform="translate(19667 -12386)" fill="#fff" stroke="#707070" stroke-width="1">
      <rect width="59" height="113" stroke="none"/>
      <rect x="0.5" y="0.5" width="58" height="112" fill="none"/>
    </g>
    <rect id="Rectangle_10870" data-name="Rectangle 10870" width="63" height="57" transform="translate(19615 -12330)" fill="#fff"/>
    <g id="Group_46024" data-name="Group 46024" transform="translate(19653.781 -12407.313)">
      <path id="Path_3412" data-name="Path 3412" d="M-37.79,58.6a2.4,2.4,0,0,0,2.469-2.335c0-.045,0-.092,0-.136A21.051,21.051,0,0,1-14.3,35.1h6.816l-2.7,2.7a2.4,2.4,0,0,0,0,3.4,2.4,2.4,0,0,0,3.4,0L.015,34.4a2.332,2.332,0,0,0,.518-.779A2.4,2.4,0,0,0,.015,31l-6.8-6.795a2.4,2.4,0,0,0-3.395.1,2.4,2.4,0,0,0,0,3.3l2.7,2.7H-14.3A25.859,25.859,0,0,0-40.126,56.13,2.407,2.407,0,0,0-37.79,58.6Z" transform="translate(3.462 5.903)" fill="#f9423a"/>
      <path id="Path_3413" data-name="Path 3413" d="M66.886,17.314H20.894A10.06,10.06,0,0,0,10.835,27.375V72.2H-33.719A10.061,10.061,0,0,0-43.78,82.263v45.991a10.061,10.061,0,0,0,10.061,10.059h100.6a10.061,10.061,0,0,0,10.061-10.059V27.375A10.061,10.061,0,0,0,66.886,17.314Zm-100.6,115.25a4.311,4.311,0,0,1-4.312-4.31v-7.186a1.436,1.436,0,0,1,1.437-1.437,4.311,4.311,0,0,0,4.312-4.312V95.2a4.311,4.311,0,0,0-4.312-4.31,1.438,1.438,0,0,1-1.437-1.437V82.263a4.311,4.311,0,0,1,4.312-4.312H10.835V127.98a9.946,9.946,0,0,0,1.153,4.585ZM71.2,73.207V127.98a4.311,4.311,0,0,1-4.312,4.312H20.894a4.313,4.313,0,0,1-4.312-4.312V27.375a4.313,4.313,0,0,1,4.312-4.312h7.186A1.436,1.436,0,0,1,29.518,24.5a4.311,4.311,0,0,0,4.312,4.312H53.95A4.311,4.311,0,0,0,58.262,24.5,1.438,1.438,0,0,1,59.7,23.063h7.186A4.311,4.311,0,0,1,71.2,27.375Z" transform="translate(0)" fill="#0032a0"/>
    </g>
  </g>
</svg>
