<svg xmlns="http://www.w3.org/2000/svg" xmlns:xlink="http://www.w3.org/1999/xlink" width="288" height="39.798" viewBox="0 0 288 39.798">
  <defs>
    <clipPath id="clip-path">
      <rect id="Rectangle_32482" data-name="Rectangle 32482" width="288" height="39.798" fill="none"/>
    </clipPath>
  </defs>
  <g id="Group_111468" data-name="Group 111468" clip-path="url(#clip-path)">
    <path id="Path_54441" data-name="Path 54441" d="M22.84,25.35a1.79,1.79,0,1,0,3.58,0V13.343a1.79,1.79,0,1,0-3.58,0ZM17.13,23a1.846,1.846,0,1,0,3.691,0V5.231a1.846,1.846,0,1,0-3.691,0Zm-5.711-1.362a1.846,1.846,0,0,0,3.691,0V1.845a1.846,1.846,0,0,0-3.691,0Zm-5.711.428a1.846,1.846,0,1,0,3.691,0V7.344a1.846,1.846,0,1,0-3.691,0Zm5.322,16.72A1.809,1.809,0,0,1,9.411,39.8a1.778,1.778,0,0,1-.785-.181C2.983,36.88,0,32.059,0,25.672V18.459a1.8,1.8,0,0,1,3.6,0v7.214A11.067,11.067,0,0,0,10.2,36.38a1.8,1.8,0,0,1,.833,2.4" transform="translate(0 0)" fill="#be2bbb"/>
    <path id="Path_54442" data-name="Path 54442" d="M250.366,12.779c0-1.308-.595-1.957-1.636-1.957s-1.637.65-1.637,1.957.595,1.919,1.637,1.919,1.636-.612,1.636-1.919M279.127,23.95c0-4.022-1.4-5.331-3.7-5.331s-3.7,1.309-3.7,5.331v2.172c0,4.022,1.405,5.332,3.7,5.332s3.7-1.31,3.7-5.332Zm-3.384-7.694c4.182,0,6.1,2.874,6.1,7.535v2.491c0,4.661-1.916,7.534-6.1,7.534a4.076,4.076,0,0,1-3.864-2.362h-.128V33.5H269.07V11.148h2.682v7.471h.128a4.076,4.076,0,0,1,3.864-2.363M263.725,23.95c0-4.022-1.4-5.331-3.7-5.331s-3.7,1.309-3.7,5.331v2.172c0,4.022,1.4,5.332,3.7,5.332s3.7-1.31,3.7-5.332Zm-3.384-7.694c4.182,0,6.1,2.874,6.1,7.535v2.491c0,4.661-1.916,7.534-6.1,7.534a4.075,4.075,0,0,1-3.863-2.362h-.129V33.5h-2.681V11.148h2.681v7.471h.129a4.074,4.074,0,0,1,3.863-2.363M247.389,33.5h2.682V16.576h-2.682Zm-6.126-6.545c0,3.288-1.6,4.6-3.544,4.6-2.011,0-3.129-1.181-3.129-3.895V16.575h-2.714V28.037c0,3.991,1.948,5.779,5.108,5.779a4.346,4.346,0,0,0,4.151-2.491h.128V33.5h2.682V16.575h-2.682Zm-18.672,4.5c2.3,0,3.7-1.31,3.7-5.332V23.95c0-4.022-1.405-5.331-3.7-5.331s-3.7,1.309-3.7,5.331v2.172c0,4.022,1.405,5.332,3.7,5.332m3.672-14.879h2.683v22.35h-2.683V31.454h-.131a4.106,4.106,0,0,1-3.861,2.362c-4.182,0-6.1-2.874-6.1-7.534V23.791c0-4.662,1.916-7.535,6.1-7.535a4.105,4.105,0,0,1,3.861,2.363h.131ZM214.145,27.59c0-8.684-11.366-5.364-11.366-10.984,0-1.692,1.18-3.288,3.9-3.288,2.3,0,4.022,1.086,4.277,3.8h2.97c-.192-4.406-3.385-6.289-7.216-6.289-3.959,0-6.8,2.33-6.8,5.906,0,8.333,11.366,4.661,11.366,11.015,0,1.884-1.276,3.575-4.119,3.575-2.49,0-4.278-1.181-4.63-3.7h-2.968c.414,4.278,3.671,6.193,7.631,6.193,4.214,0,6.959-2.234,6.959-6.226m-21.316,1.245c0-6.227-9.29-3.767-9.29-7.758,0-1.693,1.213-2.586,3.161-2.586,1.724,0,3.1.766,3.257,2.746h2.682c-.254-3.289-2.523-4.981-5.938-4.981-3.735,0-5.778,2.043-5.778,4.821,0,6.673,9.226,3.831,9.226,7.949,0,1.757-1.468,2.555-3.289,2.555s-3.352-.67-3.447-2.746h-2.683c.193,3.447,2.555,4.98,6.13,4.98,3.545,0,5.97-1.724,5.97-4.98m-14.366-12.26a4.109,4.109,0,0,0-4.15,3.033h-.129V16.575H171.5V33.5h2.682V24.079c0-3.544,1.756-4.885,4.438-4.885h.67V16.575h-.829m-16.042,2.043c-2.268,0-3.662,1.279-3.7,5.172H165.8c-.032-3.894-1.209-5.172-3.381-5.172m0-2.363c4.183,0,6.1,3,6.1,7.535V25.9h-9.8v.224c0,4.022,1.405,5.332,3.7,5.332a3,3,0,0,0,3.257-2.65h2.746c-.67,3.16-2.65,5.012-6,5.012-4.182,0-6.418-2.874-6.418-7.534V23.791c0-4.534,2.235-7.535,6.418-7.535M148.352,29.761h-.129l-4.055-13.186h-2.841l5.492,17.05-1.884,5.3h2.777l7.5-22.35H152.5Zm-19.142-3.09h-.16l-5.633-15.523h-4.775V33.5h2.809V14.245h.16l5.65,15.552h3.481l5.716-15.552h.16V33.5h2.841V11.148h-4.552ZM106.356,33.5h2.683V11.148h-2.683Zm-5.548-9.546c0-4.022-1.405-5.331-3.7-5.331s-3.7,1.309-3.7,5.331v2.172c0,4.022,1.4,5.332,3.7,5.332s3.7-1.31,3.7-5.332Zm-3.7-7.694c4.182,0,6.417,2.874,6.417,7.535v2.491c0,4.661-2.234,7.534-6.417,7.534s-6.418-2.874-6.418-7.534V23.791c0-4.662,2.234-7.535,6.418-7.535M85.542,11.148H82.86v5.428H80.018v2.363H82.86v9.769c0,3.608,1.341,4.918,4.662,4.918a10.088,10.088,0,0,0,1.659-.16v-2.3c-.415.032-.926.1-1.373.1-1.627,0-2.266-.51-2.266-2.968V18.938h3.639V16.575H85.542ZM79.355,28.836c0-6.227-9.291-3.767-9.291-7.758,0-1.693,1.213-2.586,3.16-2.586,1.725,0,3.1.766,3.257,2.746h2.683c-.256-3.289-2.522-4.981-5.939-4.981-3.736,0-5.778,2.043-5.778,4.821,0,6.673,9.227,3.831,9.227,7.949,0,1.757-1.468,2.555-3.289,2.555s-3.352-.67-3.447-2.746H67.253c.192,3.447,2.554,4.98,6.13,4.98,3.544,0,5.971-1.724,5.971-4.98M64.772,12.779c0-1.308-.595-1.957-1.637-1.957s-1.636.65-1.636,1.957.595,1.919,1.636,1.919,1.637-.612,1.637-1.919M61.795,33.5h2.683V16.576H61.795ZM58.579,16.575a4.11,4.11,0,0,0-4.15,3.033H54.3V16.575H51.618V33.5H54.3V24.079c0-3.544,1.756-4.885,4.439-4.885h.67V16.575h-.83M46.243,26.856c0-2.866-2.175-3.906-5.305-3.906h-3.7v8.057h3.653c3.179,0,5.357-1.035,5.357-3.8Zm-9.01-6.268h2.885c2.911,0,5.127-.822,5.127-3.385v-.223c0-2.124-1.6-3.309-4.727-3.309H37.233Zm7,.963c3.243.669,4.949,2.792,4.949,5.689v.224c0,3.714-3.167,6.034-7.782,6.034H34.359V11.148h6.569C45.676,11.148,48,13.5,48,16.367v.383c0,2.495-1.439,3.891-3.763,4.69l0,.111" transform="translate(1.298 0.408)" fill="#5c5353"/>
    <path id="Path_54443" data-name="Path 54443" d="M277.732,13.787a2.968,2.968,0,1,1-2.96-2.951,2.9,2.9,0,0,1,2.96,2.951m-.488,0a2.418,2.418,0,0,0-2.472-2.49,2.506,2.506,0,1,0,2.472,2.49m-1.615.538.741,1.135h-.723l-.656-1.009h-.749V15.46h-.722V12.148H274.9c.874,0,1.4.454,1.4,1.152a1.032,1.032,0,0,1-.665,1.025m-.773-.437c.471,0,.74-.218.74-.588s-.269-.58-.74-.58h-.623v1.169Z" transform="translate(10.267 0.409)" fill="#5c5353"/>
  </g>
</svg>
