<svg id="Zeposia_Logo" data-name="Zeposia Logo" xmlns="http://www.w3.org/2000/svg" xmlns:xlink="http://www.w3.org/1999/xlink" width="250" height="54.605" viewBox="0 0 250 54.605">
  <defs>
    <clipPath id="clip-path">
      <rect id="Rectangle_17205" data-name="Rectangle 17205" width="250" height="54.605" fill="none"/>
    </clipPath>
  </defs>
  <g id="New_logo" data-name="New logo">
    <g id="Group_72197" data-name="Group 72197" clip-path="url(#clip-path)">
      <path id="Path_46266" data-name="Path 46266" d="M178.731,97.986a21.729,21.729,0,0,1-1.756-8.911,22.883,22.883,0,0,1,2.2-10.016H180.9a21.182,21.182,0,0,0-2.283,9.858,22.05,22.05,0,0,0,1.756,9.069Zm8.883-14.3a6.421,6.421,0,0,1,4.812,1.969,6.031,6.031,0,0,1-.063,8.529l-.035.035a6.96,6.96,0,0,1-9.439,0,6.02,6.02,0,0,1-.139-8.511l.042-.042A6.414,6.414,0,0,1,187.614,83.685Zm-.006,1.482a4.818,4.818,0,0,0-3.465,1.4,4.645,4.645,0,0,0,1,7.461,5.373,5.373,0,0,0,4.936,0,4.639,4.639,0,0,0,.991-7.461A4.825,4.825,0,0,0,187.609,85.168Zm7.333-1.18h9.226l-7.113,10.431h6.883v1.342h-9.666l7.107-10.442h-6.438Zm22.408,0V95.761h-1.593V93.737a6.855,6.855,0,0,1-2.281,1.742,6.5,6.5,0,0,1-2.765.584,6.34,6.34,0,0,1-4.555-1.812,5.882,5.882,0,0,1-1.888-4.409,5.781,5.781,0,0,1,1.905-4.349,6.422,6.422,0,0,1,4.584-1.807,6.008,6.008,0,0,1,5,2.467V83.988Zm-6.461,1.158a5.123,5.123,0,0,0-2.491.621,4.712,4.712,0,0,0-1.817,1.746,4.509,4.509,0,0,0,.006,4.755,4.792,4.792,0,0,0,1.828,1.768,5.021,5.021,0,0,0,2.463.632,5.31,5.31,0,0,0,2.514-.626,4.55,4.55,0,0,0,1.828-1.7,4.608,4.608,0,0,0,.64-2.411,4.534,4.534,0,0,0-1.436-3.415A4.922,4.922,0,0,0,210.89,85.146Zm8.686-1.158h1.616V86.1a6.649,6.649,0,0,1,2.148-1.813,5.568,5.568,0,0,1,2.563-.6,4.679,4.679,0,0,1,2.5.671,4.074,4.074,0,0,1,1.611,1.807,9,9,0,0,1,.52,3.539v6.059h-1.616V90.145a12.977,12.977,0,0,0-.181-2.716,2.949,2.949,0,0,0-1.078-1.758,3.412,3.412,0,0,0-2.079-.59,4.15,4.15,0,0,0-2.627.909,4.236,4.236,0,0,0-1.53,2.251,14.705,14.705,0,0,0-.231,3.2v4.317h-1.616Zm14.041-4.848a1.33,1.33,0,0,1,.943.368,1.175,1.175,0,0,1,.39.887,1.161,1.161,0,0,1-.39.876,1.327,1.327,0,0,1-.943.368,1.311,1.311,0,0,1-.931-.368,1.163,1.163,0,0,1-.391-.876,1.175,1.175,0,0,1,.391-.887,1.311,1.311,0,0,1,.931-.368Zm-.8,4.848h1.616V95.761h-1.616Zm4.051,0h1.616v2.034a6.076,6.076,0,0,1,1.734-1.644,5.164,5.164,0,0,1,2.579-.693,4.542,4.542,0,0,1,1.734.335,3.733,3.733,0,0,1,1.341.893,4.692,4.692,0,0,1,.9,1.6,5.733,5.733,0,0,1,2.016-2.1,5,5,0,0,1,2.6-.72,4.275,4.275,0,0,1,2.3.617,3.731,3.731,0,0,1,1.48,1.72,8.643,8.643,0,0,1,.484,3.311v6.427H254V89.333a7.892,7.892,0,0,0-.288-2.6,2.383,2.383,0,0,0-.984-1.142,3.089,3.089,0,0,0-1.663-.433,3.858,3.858,0,0,0-3.568,2.381,10.349,10.349,0,0,0-.449,3.614v4.61h-1.617V89.734a9.722,9.722,0,0,0-.283-2.894,2.452,2.452,0,0,0-.987-1.223,3,3,0,0,0-1.675-.46,3.9,3.9,0,0,0-3.539,2.337,8.661,8.661,0,0,0-.467,3.279v4.988h-1.616Zm26.766-.3a6.421,6.421,0,0,1,4.812,1.969,6.031,6.031,0,0,1-.063,8.529l-.036.035a6.96,6.96,0,0,1-9.439,0,6.02,6.02,0,0,1-.139-8.511l.042-.042A6.415,6.415,0,0,1,263.632,83.685Zm-.006,1.482a4.818,4.818,0,0,0-3.465,1.4,4.645,4.645,0,0,0,1,7.461,5.373,5.373,0,0,0,4.936,0,4.639,4.639,0,0,0,.991-7.461A4.825,4.825,0,0,0,263.626,85.168Zm20.9-5.724V95.761h-1.593V93.737a6.854,6.854,0,0,1-2.281,1.742,6.5,6.5,0,0,1-2.765.584,6.338,6.338,0,0,1-4.556-1.812,5.882,5.882,0,0,1-1.888-4.409,5.78,5.78,0,0,1,1.905-4.349,6.424,6.424,0,0,1,4.585-1.807,6.007,6.007,0,0,1,5,2.467V79.444Zm-6.461,5.7a5.136,5.136,0,0,0-2.492.621,4.713,4.713,0,0,0-1.817,1.746,4.512,4.512,0,0,0,.006,4.755,4.8,4.8,0,0,0,1.828,1.767,5.03,5.03,0,0,0,2.463.632,5.313,5.313,0,0,0,2.515-.627,4.553,4.553,0,0,0,1.828-1.7,4.611,4.611,0,0,0,.64-2.41,4.531,4.531,0,0,0-1.436-3.415,4.92,4.92,0,0,0-3.535-1.373m10.467-6.087a21.878,21.878,0,0,1,1.712,8.891,23.256,23.256,0,0,1-2.152,10.037h-1.734a21.11,21.11,0,0,0,2.349-9.859,21.96,21.96,0,0,0-1.822-9.068Zm17.491,5.105c0,2.094-.878,3.246-2.469,3.246s-2.479-1.152-2.479-3.246.878-3.246,2.479-3.246S306.025,82.079,306.025,84.164Zm-3.549,0c0,1.518.339,2.185,1.08,2.185s1.07-.667,1.07-2.185-.338-2.185-1.07-2.185S302.476,82.637,302.476,84.164Zm5.1,2.561a.7.7,0,1,1-1.408.053q0-.026,0-.053a.7.7,0,1,1,1.408,0Zm2.546-.421c1.088,0,1.6-.75,1.582-1.92a1.774,1.774,0,0,1-1.591.777,1.924,1.924,0,0,1-2.03-2.076,2.1,2.1,0,0,1,2.3-2.185c1.664,0,2.67,1.188,2.67,3.154,0,2.048-1.107,3.383-2.853,3.383a4.1,4.1,0,0,1-1.975-.521l.54-1.024A2.382,2.382,0,0,0,310.125,86.3Zm-.731-3.21a.928.928,0,0,0,.861.991.982.982,0,0,0,.163,0,1.01,1.01,0,0,0,1.111-.9,1.036,1.036,0,0,0,.005-.118.977.977,0,0,0-.952-1,.914.914,0,0,0-.127,0,.961.961,0,0,0-1.058.853,1.016,1.016,0,0,0,0,.17Zm7.432-.319c0-.412-.32-.649-.878-.649a2.966,2.966,0,0,0-1.783.8l-.567-1.079a4.267,4.267,0,0,1,2.56-.951c1.28,0,2.186.649,2.186,1.655a3.489,3.489,0,0,1-1.226,2.13l-1.491,1.473h2.945v1.216h-4.81v-1l2.368-2.441a2.03,2.03,0,0,0,.695-1.161Zm13.688,1.508v3.091h-1.4V84.7a.9.9,0,0,0-.951-1.006,1.124,1.124,0,0,0-1.095,1.153c0,.033,0,.066.007.1v2.432h-1.4V84.7a.9.9,0,0,0-.791-1,.936.936,0,0,0-.151,0,1.126,1.126,0,0,0-1.1,1.148,1.014,1.014,0,0,0,.007.1v2.432H322.23V82.455h1.408v.85A1.817,1.817,0,0,1,325.3,82.4a1.635,1.635,0,0,1,1.664,1.134A1.8,1.8,0,0,1,328.74,82.4,1.707,1.707,0,0,1,330.514,84.284Zm5.738-1.829v4.462a2.321,2.321,0,0,1-2.624,2.286,3.827,3.827,0,0,1-2.14-.649l.521-.987a2.6,2.6,0,0,0,1.527.494c.805,0,1.316-.43,1.316-1.1V86.4a1.736,1.736,0,0,1-1.481.713,2.155,2.155,0,0,1-2.149-2.377,2.119,2.119,0,0,1,2.112-2.332,1.769,1.769,0,0,1,1.517.713v-.667Zm-1.4,2.322a1.161,1.161,0,0,0-1.036-1.274c-.038,0-.077-.006-.116-.006a1.178,1.178,0,0,0-1.166,1.19c0,.03,0,.06,0,.09a1.162,1.162,0,1,0,2.313,0Zm-31.2,7.216a1.336,1.336,0,0,0,0,2.652,1.278,1.278,0,0,0,1.143-.576l.969.658a2.416,2.416,0,0,1-2.185,1.088,2.51,2.51,0,1,1,.005-5.021h.013a2.451,2.451,0,0,1,2.131,1.033l-.951.686A1.358,1.358,0,0,0,303.656,91.993Zm5.751,3.767v-.576a1.893,1.893,0,0,1-1.546.64,1.525,1.525,0,0,1-1.692-1.536c0-.924.668-1.473,1.875-1.482H309.4v-.092c0-.521-.348-.823-1.024-.823a3.126,3.126,0,0,0-1.463.43l-.439-.969a4.611,4.611,0,0,1,2.222-.566c1.316,0,2.076.658,2.085,1.765l.009,3.21Zm-.009-1.682v-.439h-1.107c-.54,0-.8.164-.8.557,0,.375.292.622.768.622A1.089,1.089,0,0,0,309.4,94.078Zm7.588-.75a2.257,2.257,0,0,1-2.286,2.487,1.862,1.862,0,0,1-1.582-.768v2.487h-1.408V90.842h1.408v.722a1.824,1.824,0,0,1,1.554-.769,2.3,2.3,0,0,1,2.313,2.534Zm-1.427-.046a1.237,1.237,0,1,0,.006.112c0-.037,0-.074-.006-.111Zm3.94-1.473c-.329,0-.567.11-.567.366,0,.741,2.6.366,2.587,2.1,0,1.006-.887,1.537-2,1.537a3.436,3.436,0,0,1-2.131-.686l.457-.951a2.966,2.966,0,0,0,1.71.613c.356,0,.622-.119.622-.384,0-.786-2.551-.366-2.551-2.093,0-1.015.868-1.536,1.938-1.536a3.669,3.669,0,0,1,1.92.549l-.485.96a3.332,3.332,0,0,0-1.5-.476Zm7.591-.968v4.919h-1.4v-.869a1.745,1.745,0,0,1-1.645.924,1.7,1.7,0,0,1-1.774-1.884v-3.09h1.408v2.688a.891.891,0,0,0,.778.991.881.881,0,0,0,.147.005,1.125,1.125,0,0,0,1.094-1.153q0-.049-.007-.1V90.842Zm2.5-1.866v6.785h-1.408V88.975Zm5.718,4.756h-3.53a1.257,1.257,0,0,0,1.271.987A1.745,1.745,0,0,0,334.3,94.2l.74.75a2.742,2.742,0,0,1-2.1.869,2.517,2.517,0,0,1-.307-5.021,2.459,2.459,0,0,1,.27,0C334.625,90.8,335.429,91.938,335.311,93.731Zm-1.317-.833a1.027,1.027,0,0,0-.981-1.071c-.036,0-.071,0-.107,0a1.154,1.154,0,0,0-1.153,1.07Zm3.873-1.088c-.329,0-.567.11-.567.366,0,.741,2.6.366,2.588,2.1,0,1.006-.887,1.537-2,1.537a3.438,3.438,0,0,1-2.131-.686l.457-.951a2.966,2.966,0,0,0,1.71.613c.357,0,.622-.119.622-.384,0-.786-2.551-.366-2.551-2.093,0-1.015.868-1.536,1.938-1.536a3.667,3.667,0,0,1,1.92.549l-.485.96A3.329,3.329,0,0,0,337.867,91.81Z" transform="translate(-97.108 -43.381)" fill="#768692"/>
      <rect id="Rectangle_17204" data-name="Rectangle 17204" width="1.128" height="15.344" transform="translate(198.215 37.339)" fill="#f9423a"/>
      <path id="Path_46267" data-name="Path 46267" d="M169.853,21.311a2.7,2.7,0,0,1-.96,2.084L153.079,37.258h17.37v4.3H147.157a2.091,2.091,0,0,1-1.622-.612,2.276,2.276,0,0,1-.562-1.6A2.756,2.756,0,0,1,146,37.192l16.146-13.862H145.5V19h22.167a1.988,1.988,0,0,1,1.621.678,2.486,2.486,0,0,1,.563,1.638m11.008,20.248a17.384,17.384,0,0,1-4.136-.414,5.981,5.981,0,0,1-2.647-1.323,4.97,4.97,0,0,1-1.406-2.382,13.557,13.557,0,0,1-.414-3.623v-7.08a13.6,13.6,0,0,1,.414-3.606,4.974,4.974,0,0,1,1.406-2.4,6,6,0,0,1,2.647-1.323A17.406,17.406,0,0,1,180.861,19H196.61v4.268H180.861a7.254,7.254,0,0,0-1.787.182,2.475,2.475,0,0,0-1.109.579,2.054,2.054,0,0,0-.562,1.059,7.741,7.741,0,0,0-.148,1.654v1.522h19.338v4H177.255V33.85a7.9,7.9,0,0,0,.148,1.688,2.113,2.113,0,0,0,.546,1.059,2.148,2.148,0,0,0,1.109.546,9.046,9.046,0,0,0,1.8.149H196.61v4.268Zm23.661-6.452v6.452h-5.029V19h18.065a18.04,18.04,0,0,1,4.036.38,5.92,5.92,0,0,1,2.614,1.257,4.764,4.764,0,0,1,1.406,2.266,11.968,11.968,0,0,1,.414,3.375v1.952a11.859,11.859,0,0,1-.4,3.342,4.215,4.215,0,0,1-1.373,2.117,5.8,5.8,0,0,1-2.6,1.108,22.12,22.12,0,0,1-4.1.314ZM221,26.473a3.165,3.165,0,0,0-.778-2.482,4.418,4.418,0,0,0-2.8-.662h-12.9v7.709h12.969a4.535,4.535,0,0,0,2.746-.612,2.983,2.983,0,0,0,.761-2.4Zm16.177,15.087a17.382,17.382,0,0,1-4.136-.414,5.981,5.981,0,0,1-2.647-1.323,4.966,4.966,0,0,1-1.406-2.382,13.557,13.557,0,0,1-.414-3.623v-7.08a13.583,13.583,0,0,1,.414-3.606,4.97,4.97,0,0,1,1.406-2.4,6,6,0,0,1,2.647-1.323A17.4,17.4,0,0,1,237.175,19h8.568a17.564,17.564,0,0,1,4.169.413,5.993,5.993,0,0,1,2.647,1.323,4.979,4.979,0,0,1,1.407,2.4,13.656,13.656,0,0,1,.413,3.606v7.08a13.6,13.6,0,0,1-.413,3.623,4.973,4.973,0,0,1-1.407,2.382,5.978,5.978,0,0,1-2.647,1.324,17.565,17.565,0,0,1-4.169.414Zm12.176-14.591a7.093,7.093,0,0,0-.182-1.753,2.419,2.419,0,0,0-.612-1.125,2.333,2.333,0,0,0-1.174-.6,8.651,8.651,0,0,0-1.836-.166h-8.139a9.222,9.222,0,0,0-1.936.166,2.332,2.332,0,0,0-1.175.6,2.2,2.2,0,0,0-.579,1.125,8.594,8.594,0,0,0-.148,1.754v6.65a9.049,9.049,0,0,0,.148,1.8,2.113,2.113,0,0,0,.579,1.125,2.3,2.3,0,0,0,1.175.563,10.226,10.226,0,0,0,1.936.149h8.139a9.591,9.591,0,0,0,1.836-.149,2.1,2.1,0,0,0,1.787-1.687,7.457,7.457,0,0,0,.182-1.8Zm7.577,14.591V37.291h17.138a3.773,3.773,0,0,0,1.952-.38,1.7,1.7,0,0,0,.6-1.538V34.148a1.761,1.761,0,0,0-.6-1.505A3.238,3.238,0,0,0,274.1,32.2H263.345a11.827,11.827,0,0,1-3.126-.347,4.484,4.484,0,0,1-1.969-1.059A3.771,3.771,0,0,1,257.241,29a10.063,10.063,0,0,1-.281-2.531V25.348a10.4,10.4,0,0,1,.364-2.945,4.469,4.469,0,0,1,1.125-1.968,4.544,4.544,0,0,1,1.985-1.092A10.719,10.719,0,0,1,263.345,19h17.916v4.268H263.809a2.668,2.668,0,0,0-1.7.447,2.285,2.285,0,0,0-.546,1.8v.728a1.947,1.947,0,0,0,.5,1.505,2.577,2.577,0,0,0,1.721.447H274.33a13.881,13.881,0,0,1,3.193.315,5.131,5.131,0,0,1,2.134,1.009,3.879,3.879,0,0,1,1.191,1.787,8.309,8.309,0,0,1,.364,2.614V35.7a8.707,8.707,0,0,1-.364,2.7,3.874,3.874,0,0,1-1.191,1.8,5.276,5.276,0,0,1-2.134,1.026,13.194,13.194,0,0,1-3.193.331ZM285.273,19H290.3V41.559h-5.029ZM322.22,40.818,311.55,21.445a5.091,5.091,0,0,0-1.644-1.95,3.964,3.964,0,0,0-2.063-.5h-1.9a3.254,3.254,0,0,0-1.805.5,5.437,5.437,0,0,0-1.579,1.95L291.984,40.818a.664.664,0,0,0-.081.532c.053.14.22.21.5.21h4.191a.779.779,0,0,0,.741-.419l2.224-4.158,15.212.107.243.447L317,41.14a.738.738,0,0,0,.742.419h4.094q.387,0,.468-.209a.672.672,0,0,0-.081-.532m-20.63-7.575,5.061-9.444a.393.393,0,0,1,.354-.226h.193a.4.4,0,0,1,.355.226l4.8,8.846.336.619Zm27.958,5.611a2.482,2.482,0,1,1-2.5-2.469h.02a2.421,2.421,0,0,1,2.475,2.366c0,.034,0,.069,0,.1m-.331,0a2.093,2.093,0,0,0-2.034-2.152h-.11a2.166,2.166,0,1,0,2.144,2.186c0-.011,0-.023,0-.035m-1.477.429.64.991h-.485l-.584-.9h-.766v.9h-.478V37.462h1.125c.7,0,1.139.372,1.139.956a.86.86,0,0,1-.591.866Zm.127-.865c0-.359-.26-.556-.71-.556h-.619V38.98h.619C327.607,38.98,327.867,38.776,327.867,38.418Z" transform="translate(-79.548 -10.421)" fill="#0032a0"/>
      <path id="Path_46268" data-name="Path 46268" d="M71.993,54.344l-6.211-5.9,6.75-5.1A1.061,1.061,0,0,1,74.21,44.41Z" transform="translate(-36.096 -23.662)" fill="#f9423a"/>
      <path id="Path_46269" data-name="Path 46269" d="M.727,31.477,17.9,47.708l11.783-8.165-13.3-12.636c-1.015.056-12.255.657-13.816.758-1.02.065-2.315.575-2.544,1.706a2.449,2.449,0,0,0,.7,2.105" transform="translate(0 -14.764)" fill="#2651ae"/>
      <path id="Path_46270" data-name="Path 46270" d="M57.666,60.81l-6.212-5.9L39.671,63.073Z" transform="translate(-21.768 -30.129)" fill="#0032a0"/>
      <path id="Path_46271" data-name="Path 46271" d="M47.681,5.013l6.211,5.9-6.75,5.1a1.06,1.06,0,0,1-1.678-1.071Z" transform="translate(-24.934 -2.751)" fill="#f9423a"/>
      <path id="Path_46272" data-name="Path 46272" d="M93.13,16.232,75.953,0,64.17,8.165,77.468,20.8c1.015-.056,12.255-.657,13.816-.758,1.02-.065,2.315-.575,2.544-1.706a2.449,2.449,0,0,0-.7-2.105" transform="translate(-35.211 -0.001)" fill="#bac2c8"/>
      <path id="Path_46273" data-name="Path 46273" d="M50.406,2.262l6.212,5.9L68.4,0Z" transform="translate(-27.659)" fill="#98a4ad"/>
    </g>
  </g>
</svg>
